<?xml version="1.0" encoding="utf-8"?>
<!-- Generator: Adobe Illustrator 18.1.1, SVG Export Plug-In . SVG Version: 6.00 Build 0)  -->
<svg version="1.1" xmlns="http://www.w3.org/2000/svg" xmlns:xlink="http://www.w3.org/1999/xlink" x="0px" y="0px"
	 viewBox="0 0 1982.8 849.4" enable-background="new 0 0 1982.8 849.4" xml:space="preserve">
<g id="Layer_2">
	<g>
		<path fill="#EDEDED" d="M33.7,418c14.4,9.4,39.7,19.3,64,19.3c35.3,0,51.9-17.7,51.9-39.7c0-23.2-13.8-35.9-49.7-49.1
			c-48-17.1-70.7-43.6-70.7-75.6c0-43.1,34.8-78.4,92.2-78.4c27,0,50.8,7.7,65.7,16.6L175,246.3c-10.5-6.6-29.8-15.5-54.6-15.5
			c-28.7,0-44.7,16.6-44.7,36.4c0,22.1,16,32,50.8,45.3c46.4,17.7,70.1,40.8,70.1,80.6c0,46.9-36.4,80-99.9,80
			c-29.3,0-56.3-7.2-75.1-18.2L33.7,418z"/>
		<path fill="#EDEDED" d="M276.5,200.5l58.5,157.9c6.1,17.7,12.7,38.6,17.1,54.6h1.1c5-16,10.5-36.4,17.1-55.8l53-156.8h51.3
			l-72.9,190.4c-34.8,91.6-58.5,138.6-91.6,167.3c-23.7,21-47.5,29.3-59.6,31.5l-12.1-40.8c12.1-3.9,28.2-11.6,42.5-23.7
			c13.2-10.5,29.8-29.3,40.8-54.1c2.2-5,3.9-8.8,3.9-11.6c0-2.8-1.1-6.6-3.3-12.7l-98.8-246.2H276.5z"/>
		<path fill="#EDEDED" d="M518.9,272.8c0-27.6-0.6-50.2-2.2-72.3h43.1l2.8,44.2h1.1c13.2-25.4,44.2-50.2,88.3-50.2
			c37,0,94.4,22.1,94.4,113.7v159.5h-48.6v-154c0-43.1-16-78.9-61.8-78.9c-32,0-56.9,22.6-65.1,49.7c-2.2,6.1-3.3,14.4-3.3,22.6
			v160.6h-48.6V272.8z"/>
		<path fill="#F39200" d="M1318.7,331.8c0,98.8-68.4,141.9-133,141.9c-72.3,0-128.1-53-128.1-137.4c0-89.4,58.5-141.9,132.5-141.9
			C1266.8,194.4,1318.7,250.1,1318.7,331.8z M1106.7,334.6c0,58.5,33.7,102.7,81.1,102.7c46.4,0,81.1-43.6,81.1-103.8
			c0-45.3-22.6-102.7-80-102.7S1106.7,283.8,1106.7,334.6z"/>
		<path fill="#F39200" d="M1380,283.8c0-31.5-0.6-58.5-2.2-83.4h42.5l1.7,52.4h2.2c12.1-35.9,41.4-58.5,74-58.5
			c5.5,0,9.4,0.6,13.8,1.7v45.8c-5-1.1-9.9-1.7-16.6-1.7c-34.2,0-58.5,25.9-65.1,62.4c-1.1,6.6-2.2,14.4-2.2,22.6v142.4h-48V283.8z"
			/>
		<path fill="#F39200" d="M1562.7,272.8c0-27.6-0.6-50.2-2.2-72.3h42.5l2.2,43.1h1.7c14.9-25.4,39.7-49.1,83.9-49.1
			c36.4,0,64,22.1,75.6,53.5h1.1c8.3-14.9,18.8-26.5,29.8-34.8c16-12.1,33.7-18.8,59.1-18.8c35.3,0,87.8,23.2,87.8,115.9v157.3
			h-47.5V316.4c0-51.3-18.8-82.2-58-82.2c-27.6,0-49.1,20.4-57.4,44.2c-2.2,6.6-3.9,15.5-3.9,24.3v165h-47.5V307.6
			c0-42.5-18.8-73.4-55.8-73.4c-30.4,0-52.4,24.3-60.2,48.6c-2.8,7.2-3.9,15.5-3.9,23.7v161.2h-47.5V272.8z"/>
	</g>
</g>
<g id="Layer_4">
	<path fill="none" stroke="#EDEDED" stroke-width="49" stroke-miterlimit="10" d="M958.3,24.6c-40.2-4.4-107.8,109.9-114.4,229
		c-9.3,169.4,111.7,224.4,88.4,370.8C914.4,737.4,821.7,836,778.8,823.9c-32.7-9.3-44.8-85.4-41.6-141.7
		c12.8-222.6,273.6-284.2,281.4-495.5C1021.4,110.3,990.6,28.2,958.3,24.6z"/>
</g>
<g id="Layer_7">
</g>
<g id="Layer_6">
	<g>
		<g>
			<path fill="none" stroke="#F39200" stroke-width="29" stroke-miterlimit="10" d="M958.2,48.7c-0.5,0.6-1.1,1.2-1.7,1.9"/>
			<path fill="none" stroke="#F39200" stroke-width="29" stroke-miterlimit="10" stroke-dasharray="5.0273,5.0273" d="M953.3,54.3
				c-16.9,19.6-40.7,52.1-56.4,94.7c-15.4,41.8-25.1,80.1-26.1,109.5c-0.2,5.3-1.7,27.8,1.2,58.3c2.8,29.2,10.2,72.6,31.6,123.1"/>
			<path fill="none" stroke="#F39200" stroke-width="29" stroke-miterlimit="10" d="M904.5,442.2c0.3,0.8,0.7,1.5,1,2.3"/>
		</g>
	</g>
	<path fill="none" stroke="#F39200" stroke-width="23" stroke-miterlimit="10" d="M951.6,37.3C934.8,56,905,96.1,887.7,143.1
		c-16.2,44-25.1,80.5-26.1,109.5c-0.5,16.7-0.4,30.4,0.2,42.8c0,0,0.4,7.8,1,15.5c1.7,20.8,12.3,69.2,31.4,132.1"/>
	<path fill="none" stroke="#F39200" stroke-width="24" stroke-miterlimit="10" d="M786.5,805.5c22.3-14.9,81.3-58.6,110.2-139.8
		c33.4-93.9,4.5-181.4-4.8-201.3c-9.9-21.4-17.5-39.6-24.9-51.8"/>
	<g>
		<g>
			<path fill="none" stroke="#F39200" stroke-width="24" stroke-miterlimit="10" d="M779.2,794.5c0.7-0.4,1.4-0.9,2.1-1.4"/>
			<path fill="none" stroke="#F39200" stroke-width="24" stroke-miterlimit="10" stroke-dasharray="5.0249,5.0249" d="M785.4,790.2
				c25.4-17.9,76.3-60.2,100.5-135.5c29.3-91.2-5.4-195.1-1-215.7"/>
			<path fill="none" stroke="#F39200" stroke-width="24" stroke-miterlimit="10" d="M885.8,436.6c0.5-0.8,1.2-1.2,2-1.3"/>
		</g>
	</g>
</g>
<g id="Layer_5">
	<path fill="none" stroke="#EDEDED" stroke-width="49" stroke-miterlimit="10" d="M770.4,475.7c51.1-37.2,90.4-42.7,117.4-40.4
		c29,2.5,57.1,15,84.7,0c15.1-8.2,23.9-21.3,28.9-30.8"/>
</g>
<g id="Layer_3">
	<g>
	</g>
	<g>
	</g>
	<g>
	</g>
	<g>
	</g>
	<g>
	</g>
	<g>
	</g>
</g>
</svg>
